<svg width="1386" height="536" viewBox="0 0 1386 536" fill="none" xmlns="http://www.w3.org/2000/svg">
<path fill-rule="evenodd" clip-rule="evenodd" d="M908.6 169.4V15.4H477.4V92.4H15.4V520.52H1370.6V169.4H908.6ZM0 535.92V77H462V-1.52588e-05H924V154H1386V535.92H0Z" fill="white"/>
<path d="M1242.73 487.413C1202.66 487.413 1157.4 474.976 1157.75 424.54H1218.55C1218.89 438.358 1225.46 447.685 1244.8 447.685C1256.55 447.685 1265.18 443.54 1265.18 433.176C1265.18 420.74 1248.6 419.012 1227.53 413.485C1195.06 405.194 1172.95 393.448 1172.95 361.666C1172.95 321.248 1209.22 299.83 1256.2 299.83C1294.89 299.83 1333.24 312.266 1334.62 354.412H1275.55C1274.51 343.012 1265.88 338.521 1253.44 338.521C1243.42 338.521 1233.4 342.321 1233.4 350.612C1233.4 359.248 1243.42 363.048 1266.22 368.23C1295.93 375.139 1326.68 385.848 1326.68 421.085C1326.68 465.303 1293.86 487.413 1242.73 487.413Z" fill="white"/>
<path d="M1075.29 481.54L1109.49 305.357H1173.74L1139.54 481.54H1075.29ZM1113.63 283.939L1122.96 234.538H1187.22L1177.89 283.939H1113.63Z" fill="white"/>
<path d="M1002.82 481.54C1001.1 477.394 1000.06 469.794 1000.06 462.194H999.369C986.242 478.431 967.933 486.031 952.042 486.031C917.496 486.031 897.459 466.34 897.459 436.285C897.459 396.903 924.06 380.667 966.896 378.248C1003.51 376.176 1019.41 373.412 1019.41 356.139C1019.41 348.885 1014.91 342.321 1002.82 342.321C987.969 342.321 979.333 349.576 975.878 363.394H914.732C921.641 326.084 948.932 299.83 1006.62 299.83C1025.62 299.83 1044.97 302.248 1059.82 311.921C1076.06 322.63 1086.42 341.975 1079.86 374.794L1064.66 452.522C1061.55 467.376 1062.24 475.322 1065.7 478.776L1065.35 481.54H1002.82ZM978.642 446.994C992.115 446.994 1004.55 440.431 1009.04 418.321L1012.15 402.776C1005.24 405.885 996.951 407.958 985.896 409.685C974.151 411.412 959.296 414.521 959.296 430.758C959.296 442.503 966.896 446.994 978.642 446.994Z" fill="white"/>
<path d="M654.802 481.54L702.475 234.538H800.585C865.185 234.538 908.713 273.921 908.713 340.594C908.713 424.194 858.276 481.54 773.293 481.54H654.802ZM737.366 422.467H772.603C812.33 422.467 836.167 390.339 836.167 345.775C836.167 311.23 819.239 293.612 788.148 293.612H762.239L737.366 422.467Z" fill="white"/>
<path d="M555.323 305.357L549.795 332.994H550.832C563.959 313.993 583.995 299.83 609.214 299.83C645.487 299.83 666.56 326.43 656.887 375.83L636.505 481.54H572.25L592.286 378.939C595.396 363.394 591.596 351.303 574.668 351.303C558.777 351.303 546.341 365.812 542.541 384.467L523.886 481.54H459.631L493.831 305.357H555.323Z" fill="white"/>
<path d="M382.237 481.54L387.419 453.558H386.382C373.946 473.249 355.982 487.067 330.073 487.067C293.109 487.067 270.309 461.503 279.636 414.176L300.709 305.357H364.964L345.618 404.503C342.509 420.049 345.273 434.903 362.2 434.903C378.091 434.903 390.528 424.194 394.328 403.812L413.328 305.357H477.583L443.383 481.54H382.237Z" fill="white"/>
<path d="M164.055 395.176H132.964L116.382 481.54H45.2182L92.8913 234.538H197.565C245.583 234.538 285.311 255.266 285.311 300.866C285.311 337.83 268.038 357.176 235.565 368.23V369.267C253.874 376.867 263.547 393.103 263.547 419.703C263.547 430.758 262.856 448.031 263.201 460.813C263.201 470.14 265.274 475.667 268.038 477.74V481.54H196.183C194.11 478.431 193.419 471.867 193.419 465.649C193.419 455.976 194.456 440.776 194.456 427.649C194.456 407.267 187.546 395.176 164.055 395.176ZM153.346 290.502L142.982 344.394H180.983C198.946 344.394 214.147 335.412 214.147 314.339C214.147 299.484 205.165 290.502 186.51 290.502H153.346Z" fill="white"/>
</svg>
